<svg width="40" height="40" viewBox="0 0 40 40" fill="none" xmlns="http://www.w3.org/2000/svg">
<path d="M34.375 4.375H5.625C4.93359 4.375 4.375 4.93359 4.375 5.625V34.375C4.375 35.0664 4.93359 35.625 5.625 35.625H34.375C35.0664 35.625 35.625 35.0664 35.625 34.375V5.625C35.625 4.93359 35.0664 4.375 34.375 4.375ZM13.6445 31.0039H9.00781V16.0898H13.6445V31.0039ZM11.3281 14.0508C10.7966 14.0508 10.277 13.8932 9.83503 13.5979C9.39307 13.3025 9.04861 12.8828 8.8452 12.3917C8.64179 11.9007 8.58857 11.3603 8.69226 10.839C8.79596 10.3177 9.05192 9.83879 9.42778 9.46293C9.80363 9.08708 10.2825 8.83112 10.8038 8.72742C11.3251 8.62372 11.8655 8.67694 12.3566 8.88035C12.8477 9.08377 13.2674 9.42823 13.5627 9.87019C13.858 10.3121 14.0156 10.8317 14.0156 11.3633C14.0117 12.8477 12.8086 14.0508 11.3281 14.0508ZM31.0039 31.0039H26.3711V23.75C26.3711 22.0195 26.3398 19.7969 23.9609 19.7969C21.5508 19.7969 21.1797 21.6797 21.1797 23.625V31.0039H16.5508V16.0898H20.9961V18.1289H21.0586C21.6758 16.957 23.1875 15.7187 25.4453 15.7187C30.1406 15.7187 31.0039 18.8086 31.0039 22.8242V31.0039V31.0039Z" fill="#6E7279"/>
</svg>
